<svg width="135" height="18" viewBox="0 0 135 18" fill="none" xmlns="http://www.w3.org/2000/svg">
<g clip-path="url(#clip0_1_189)">
<path d="M4.80677 9.74603C4.63319 9.4918 4.39285 9.11714 4.08575 8.62206L3.4849 7.61852L3.38476 7.68877V17.3529H0V0.834577H3.14443L8.34174 8.4916L9.01268 9.6256C9.26638 10.0739 9.46666 10.4084 9.61353 10.6291L9.68363 10.5589V0.834577H13.1185V17.3529H10.0141L4.80677 9.74603ZM30.7433 10.2779C30.7725 11.6529 30.4262 13.0097 29.7419 14.2018C29.1157 15.2808 28.195 16.1582 27.0881 16.7307C25.9325 17.3016 24.6613 17.5986 23.3729 17.5986C22.0845 17.5986 20.8133 17.3016 19.6577 16.7307C18.5582 16.1551 17.6447 15.278 17.024 14.2018C16.3396 13.0097 15.9933 11.6529 16.0226 10.2779V7.91958C15.9933 6.54463 16.3396 5.18781 17.024 3.99573C17.6459 2.91438 18.5631 2.03352 19.6677 1.45677C20.8233 0.885823 22.0945 0.588867 23.3829 0.588867C24.6713 0.588867 25.9425 0.885823 27.0981 1.45677C28.205 2.02926 29.1257 2.90665 29.7519 3.9857C30.4362 5.17777 30.7825 6.53459 30.7533 7.90955V10.2779H30.7433ZM26.8478 7.3877C26.875 6.87315 26.8005 6.35829 26.6287 5.87264C26.4568 5.387 26.191 4.94015 25.8464 4.55772C25.5225 4.22399 25.1323 3.96219 24.701 3.78931C24.2698 3.61643 23.807 3.53632 23.3429 3.55418C22.8787 3.53632 22.416 3.61643 21.9847 3.78931C21.5534 3.96219 21.1632 4.22399 20.8393 4.55772C20.4947 4.94015 20.2289 5.387 20.057 5.87264C19.8852 6.35829 19.8107 6.87315 19.8379 7.3877V10.8098C19.8107 11.3243 19.8852 11.8392 20.057 12.3248C20.2289 12.8105 20.4947 13.2573 20.8393 13.6398C21.1632 13.9735 21.5534 14.2353 21.9847 14.4082C22.416 14.5811 22.8787 14.6612 23.3429 14.6433C23.807 14.6612 24.2698 14.5811 24.701 14.4082C25.1323 14.2353 25.5225 13.9735 25.8464 13.6398C26.191 13.2573 26.4568 12.8105 26.6287 12.3248C26.8005 11.8392 26.875 11.3243 26.8478 10.8098V7.3877ZM33.6273 0.834577H41.218V3.8452H39.2953V14.3924H41.218V17.4031H33.6273V14.3924H35.5701V3.79503H33.6273V0.784399V0.834577ZM48.0676 10.8098C48.0371 11.3246 48.11 11.8404 48.282 12.3265C48.454 12.8127 48.7217 13.2592 49.0691 13.6398C49.3948 13.971 49.7853 14.2311 50.2161 14.4038C50.647 14.5765 51.1088 14.6581 51.5726 14.6433C52.0324 14.678 52.4942 14.6126 52.9264 14.4515C53.3585 14.2904 53.7507 14.0374 54.0761 13.71C54.6846 12.8907 54.9763 11.8782 54.8973 10.86H58.282C58.3176 12.1308 58.0244 13.3892 57.4308 14.5129C56.891 15.4957 56.0719 16.2956 55.0775 16.811C54.0368 17.3439 52.8814 17.6127 51.7128 17.5937H51.3322C50.0476 17.6145 48.7768 17.3254 47.627 16.7508C46.5457 16.1934 45.6536 15.3273 45.0634 14.262C44.4023 13.0304 44.0775 11.6456 44.1221 10.2478V7.91958C44.0874 6.54838 44.412 5.19202 45.0634 3.9857C45.655 2.91127 46.5457 2.03257 47.627 1.45677C48.7416 0.872166 49.9842 0.575524 51.2421 0.593727H51.5726C52.7583 0.573442 53.9319 0.834802 54.9974 1.35642C55.9953 1.85065 56.8221 2.63378 57.3707 3.60435C57.9778 4.75579 58.2747 6.046 58.232 7.34756H54.697C54.7668 6.32873 54.4722 5.31829 53.8658 4.4975C53.5671 4.16164 53.197 3.89715 52.7828 3.72348C52.3686 3.54981 51.9209 3.47138 51.4724 3.49396C51.0117 3.47955 50.553 3.56133 50.1254 3.73409C49.6979 3.90685 49.3109 4.16683 48.9889 4.4975C48.643 4.879 48.3762 5.32572 48.2043 5.81159C48.0324 6.29747 47.9587 6.81278 47.9875 7.32749V10.7496L48.0676 10.8098ZM61.086 17.3529V0.834577H72.7224L72.3118 3.8452H64.7712V7.45795H71.781V10.4686H64.7712V14.4827H72.3919L72.8025 17.4934H61.086V17.3529ZM75.4562 17.3529V0.834577H79.2115V14.272H85.991L86.4016 17.3529H75.4862H75.4562ZM97.8778 14.1014H91.3486L90.1969 17.3529H86.6219L92.6304 0.834577H97.0566L103.065 17.3529H99.1395L97.8778 14.1014ZM92.3299 11.2814H96.8964C96.3089 9.46838 95.5812 7.31077 94.7133 4.8086H94.5931L92.3299 11.2814ZM109.564 9.73599C109.391 9.48176 109.15 9.10042 108.843 8.59196L108.242 7.58841L108.142 7.65866V17.3529H104.757V0.834577H107.902L113.159 8.4916L113.85 9.6256C114.104 10.0739 114.304 10.4084 114.451 10.6291L114.521 10.5589V0.834577H117.906V17.3529H114.762L109.564 9.73599ZM127.59 0.824541C128.88 0.805926 130.155 1.10213 131.305 1.68759C132.412 2.26008 133.332 3.13746 133.959 4.21651C134.643 5.40859 134.989 6.7654 134.96 8.14036V10.0371C134.989 11.412 134.643 12.7688 133.959 13.9609C133.332 15.04 132.412 15.9173 131.305 16.4898C130.155 17.0753 128.88 17.3715 127.59 17.3529H121.341V0.834577H127.59V0.824541ZM125.066 14.3824H127.59C128.054 14.4002 128.516 14.3201 128.948 14.1473C129.379 13.9744 129.769 13.7126 130.093 13.3788C130.438 12.9964 130.704 12.5496 130.875 12.0639C131.047 11.5783 131.122 11.0634 131.095 10.5489V7.61852C131.122 7.10397 131.047 6.5891 130.875 6.10346C130.704 5.61782 130.438 5.17096 130.093 4.78853C129.769 4.4548 129.379 4.19301 128.948 4.02013C128.516 3.84724 128.054 3.76713 127.59 3.78499H125.066V14.3924V14.3824Z" fill="white"/>
</g>
<defs>
<clipPath id="clip0_1_189">
<rect width="135" height="17" fill="white" transform="translate(0 0.59375)"/>
</clipPath>
</defs>
</svg>
